<svg id="Layer_1" data-name="Layer 1" xmlns="http://www.w3.org/2000/svg" xmlns:xlink="http://www.w3.org/1999/xlink" viewBox="0 0 231.25 315.23"><defs><style>.cls-1{fill:none;stroke:#221f1f;stroke-miterlimit:10;stroke-width:5px;}.cls-2{fill:url(#linear-gradient);}.cls-3{fill:url(#linear-gradient-2);}.cls-4{fill:url(#linear-gradient-3);}.cls-5{fill:url(#linear-gradient-4);}.cls-6{fill:#155dfc;}</style><linearGradient id="linear-gradient" x1="449.86" y1="460.24" x2="449.86" y2="272.43" gradientUnits="userSpaceOnUse"><stop offset="0" stop-color="#00baff"/><stop offset="1" stop-color="#155dfc"/></linearGradient><linearGradient id="linear-gradient-2" x1="449.86" y1="456.24" x2="449.86" y2="276.43" xlink:href="#linear-gradient"/><linearGradient id="linear-gradient-3" x1="429.63" y1="466.72" x2="429.63" y2="231.95" xlink:href="#linear-gradient"/><linearGradient id="linear-gradient-4" x1="429.62" y1="462.72" x2="429.62" y2="235.95" xlink:href="#linear-gradient"/></defs><path class="cls-1" d="M334.24,267.32" transform="translate(-314.01 -151.49)"/><path class="cls-2" d="M448.71,460.24c-25.22,0-49.13-10.91-67.34-30.73-18.44-20.08-28.65-47.13-26.65-70.59a96.27,96.27,0,0,1,20.86-52,92.36,92.36,0,0,1,21.78-19.41c14.86-9.53,32.78-14.62,51.81-14.7l84.51-.39.75.07a13.17,13.17,0,0,1,.09,25.9l-.68.07-82.74,1.64c-19.72.39-38.23,8.28-50.79,21.64-9.64,10.27-15.56,22.57-17.12,35.59-2.17,18.05,4.12,36.89,17.25,51.69,12.82,14.44,30.5,22.73,48.52,22.73h0c.84,0,1.68,0,2.53-.06,36.08-1.5,64.59-33.35,63.56-71l0-.68c1-6.74,6.16-12.09,12.33-12.73.42,0,.83-.06,1.25-.06a14,14,0,0,1,9.78,4.26,15.54,15.54,0,0,1,4.48,11.19c.57,52.29-40.56,96.08-91.69,97.53-.84,0-1.69,0-2.53,0Z" transform="translate(-314.01 -151.49)"/><path class="cls-3" d="M541.24,285.57a9.23,9.23,0,0,1-7.48,8.9L451,296.11c-20.17.4-39.81,8.2-53.63,22.91a67.19,67.19,0,0,0-18.17,37.84c-4.77,39.73,29.63,80.63,72.44,78.84,37.14-1.55,68.49-34.72,67.39-75.11.73-5.08,4.55-8.88,8.78-9.32,5.42-.56,11.18,4.44,11.1,11.36.55,50.71-39.72,92.22-87.8,93.58-57,1.61-96.08-54.11-92.42-96.95a91.63,91.63,0,0,1,20-49.81,88.56,88.56,0,0,1,20.84-18.57c14.76-9.46,32.14-14,49.66-14.06l84.51-.39A9.23,9.23,0,0,1,541.24,285.57Z" transform="translate(-314.01 -151.49)"/><path class="cls-4" d="M375.73,466.72a10.87,10.87,0,0,1-5.85-1.72c-13.48-8.95-37.76-29.11-49.59-64-2.8-8.28-15.69-51.75,6.41-94.92,13.74-26.84,35.1-42,43.14-47.73l.45-.32A128.51,128.51,0,0,1,390,246.77c20.45-9.64,43.09-14.57,67.29-14.65,22-.08,52.25-.17,71.48-.17h3.43a13.23,13.23,0,0,1,13,12.27,13,13,0,0,1-3.42,9.52,13.35,13.35,0,0,1-9.54,4.39c-6.28.1-12.82.15-20.07.15-10.07,0-20.23-.1-30.06-.19-7.77-.07-15.53-.15-23.34-.17h-.47a120.7,120.7,0,0,0-65.76,19l-.47.3c-8,5.2-22.86,14.89-34.31,32.33C341.73,334,341,360.23,341.92,373.71c3,41.38,29.25,67.73,40.41,77.13l.56.58A9.7,9.7,0,0,1,384.14,462a9.44,9.44,0,0,1-8.4,4.68Z" transform="translate(-314.01 -151.49)"/><path class="cls-5" d="M354.45,307.32c11.67-17.77,26.42-27.59,35.47-33.48l.48-.31a125.16,125.16,0,0,1,68.42-19.62c24.43.09,48.52.61,73.33.22a9.32,9.32,0,0,0,9.09-9.66,9.17,9.17,0,0,0-9-8.52c-18.89,0-51.91.09-74.89.17-22.63.08-45.13,4.63-65.6,14.27a125.71,125.71,0,0,0-19.11,10.93c-7.37,5.24-28.79,20.12-42.35,46.61-22,43-8.11,86.11-6.18,91.81C336.5,436.33,363,455.62,372,461.62c3.27,2.08,7.24,1,8.62-1.5a5.82,5.82,0,0,0-.89-6.22c-6.68-5.63-38.49-33.64-41.82-79.9C337,360.34,337.58,333,354.45,307.32Z" transform="translate(-314.01 -151.49)"/><path class="cls-6" d="M330.07,271.4a10.54,10.54,0,0,1-3.12-.48,12,12,0,0,1-6.85-6.21c-6.09-13.07,20.4-35.94,31.12-43.64,34.19-24.59,73.54-26.76,86.47-27.47,8-.44,12.12-.53,15.87-.53,1.78,0,3.52,0,5.51.05,2.63,0,5.7.07,9.92.07h4.86c8,0,14.9.07,21.53.13,5.88.06,11.43.11,17.43.12a13.23,13.23,0,0,1,13,12.27,13,13,0,0,1-3.42,9.52,13.34,13.34,0,0,1-9.54,4.38c-4.71.14-9.87.21-15.77.21-7.07,0-14.48-.09-22.33-.19-9.16-.12-18.62-.24-29.13-.24h-6.2c-8.4,0-38,1.55-66.67,19.23a121.81,121.81,0,0,0-28.2,24.12c-.94,1.16-7.27,8.66-14.49,8.66Z" transform="translate(-314.01 -151.49)"/><path class="cls-6" d="M370.66,235.21c30.49-18.81,61.94-19.79,68.75-19.82,29.8-.14,52.61.83,73.33.21a9.31,9.31,0,0,0,9.09-9.66,9.17,9.17,0,0,0-9-8.51c-13.7,0-25.33-.28-42.21-.24-16,0-16.61-.48-32.68.41-12.6.69-51.11,2.81-84.35,26.71C337,236.2,319.91,254.83,323.73,263a8,8,0,0,0,4.44,4.09c6.09,1.94,13-6.51,13.31-6.93A126.31,126.31,0,0,1,370.66,235.21Z" transform="translate(-314.01 -151.49)"/><path class="cls-6" d="M361.4,200.51a5.36,5.36,0,0,1-4.11-1.8c-6.41-7.34,13-25.82,13.19-26,14.1-13.32,30.67-17,38.64-18.71A99.85,99.85,0,0,1,431,151.49a80.07,80.07,0,0,1,31.43,6.13c13.28,5.62,19.32,10.88,18,15.64-.76,2.64-2.38,4.51-16.4,4.63h-.11c-3.49,0-6,.05-9.7.05-3.13,0-7.07,0-13.09-.05h-.34a154.47,154.47,0,0,0-45.87,7.91,146,146,0,0,0-23.42,10.64c-4.86,2.63-7.54,4.08-10.08,4.08Z" transform="translate(-314.01 -151.49)"/><path class="cls-6" d="M393.6,182a157,157,0,0,1,47.54-8.12c13,.08,16.28.06,22.78,0H464c.91,0,12.13-.13,12.59-1.74.76-2.63-8.88-8-15.66-10.85-22.24-9.41-44-4.92-50.92-3.4-8.73,1.92-23.73,5.41-36.76,17.72-7.83,7.39-15,18-12.91,20.46C362.56,198.66,372.65,189.21,393.6,182Z" transform="translate(-314.01 -151.49)"/><path class="cls-1" d="M328.7,289.3" transform="translate(-314.01 -151.49)"/><circle class="cls-6" cx="135.08" cy="191.45" r="14.56"/><polygon class="cls-6" points="126.55 201.94 118.21 249.34 152.12 249.34 143.25 201.94 126.55 201.94"/></svg>